HIERARCHY
ROOT Hips
{
  OFFSET 5.72205e-005 65.662 3.42586
  CHANNELS 6 Xposition Yposition Zposition Zrotation Xrotation Yrotation
  JOINT Chest
  {
    OFFSET 0 8.7983 -4.7612
    CHANNELS 6 Xposition Yposition Zposition Zrotation Xrotation Yrotation
    JOINT Chest2
    {
      OFFSET 0 8.0291 0.4195
      CHANNELS 6 Xposition Yposition Zposition Zrotation Xrotation Yrotation
      JOINT Chest3
      {
        OFFSET 0 9.9351 -2.2114
        CHANNELS 6 Xposition Yposition Zposition Zrotation Xrotation Yrotation
        JOINT Neck
        {
          OFFSET 0 22.3885 -0.4656
          CHANNELS 6 Xposition Yposition Zposition Zrotation Xrotation Yrotation
          JOINT Head
          {
            OFFSET -0.0001 12.643 3.4389
            CHANNELS 6 Xposition Yposition Zposition Zrotation Xrotation Yrotation
            End Site
            {
              OFFSET 0.0001 17.6655 0.5274
            }
          }
        }
        JOINT LeftCollar
        {
          OFFSET 2.2603 21.606 7.4023
          CHANNELS 6 Xposition Yposition Zposition Zrotation Xrotation Yrotation
          JOINT LeftShoulder
          {
            OFFSET 13.5163 -1.1332 -5.0146
            CHANNELS 6 Xposition Yposition Zposition Zrotation Xrotation Yrotation
            JOINT LeftElbow
            {
              OFFSET -0.0995 -28.05 -0.2431
              CHANNELS 6 Xposition Yposition Zposition Zrotation Xrotation Yrotation
              JOINT LeftWrist
              {
                OFFSET 0.0679 -23.3996 -0.1402
                CHANNELS 6 Xposition Yposition Zposition Zrotation Xrotation Yrotation
                JOINT LeftFinger1
                {
                  OFFSET 0.7932 -9.069 2.5189
                  CHANNELS 6 Xposition Yposition Zposition Zrotation Xrotation Yrotation
                  JOINT LeftFinger11
                  {
                    OFFSET -0.8272 -3.3923 0.5977
                    CHANNELS 6 Xposition Yposition Zposition Zrotation Xrotation Yrotation
                    JOINT LeftFinger12
                    {
                      OFFSET -0.5649 -2.3158 0.4082
                      CHANNELS 6 Xposition Yposition Zposition Zrotation Xrotation Yrotation
                      End Site
                      {
                        OFFSET -0.4919 -1.6479 0.2673
                      }
                    }
                  }
                }
                JOINT LeftFinger2
                {
                  OFFSET 0.9159 -9.2044 0.2193
                  CHANNELS 6 Xposition Yposition Zposition Zrotation Xrotation Yrotation
                  JOINT LeftFinger21
                  {
                    OFFSET 0.0117 -4.1944 -0.0248
                    CHANNELS 6 Xposition Yposition Zposition Zrotation Xrotation Yrotation
                    JOINT LeftFinger22
                    {
                      OFFSET 0.0071 -2.3249 -0.0142
                      CHANNELS 6 Xposition Yposition Zposition Zrotation Xrotation Yrotation
                      End Site
                      {
                        OFFSET -0.1475 -2.0882 0.0028
                      }
                    }
                  }
                }
                JOINT LeftFinger3
                {
                  OFFSET 0.6113 -8.7231 -2.0637
                  CHANNELS 6 Xposition Yposition Zposition Zrotation Xrotation Yrotation
                  JOINT LeftFinger31
                  {
                    OFFSET -0.1927 -3.8059 -0.2383
                    CHANNELS 6 Xposition Yposition Zposition Zrotation Xrotation Yrotation
                    JOINT LeftFinger32
                    {
                      OFFSET -0.1091 -2.1688 -0.1362
                      CHANNELS 6 Xposition Yposition Zposition Zrotation Xrotation Yrotation
                      End Site
                      {
                        OFFSET -0.2358 -1.9176 -0.0906
                      }
                    }
                  }
                }
                JOINT LeftFinger4
                {
                  OFFSET -0.6151 -8.0947 -3.5641
                  CHANNELS 6 Xposition Yposition Zposition Zrotation Xrotation Yrotation
                  JOINT LeftFinger41
                  {
                    OFFSET -0.4882 -2.341 -0.6462
                    CHANNELS 6 Xposition Yposition Zposition Zrotation Xrotation Yrotation
                    JOINT LeftFinger42
                    {
                      OFFSET -0.3575 -1.7167 -0.4742
                      CHANNELS 6 Xposition Yposition Zposition Zrotation Xrotation Yrotation
                      End Site
                      {
                        OFFSET -0.4187 -1.5237 -0.3496
                      }
                    }
                  }
                }
                JOINT LeftFinger0
                {
                  OFFSET -1.42 -1.8761 1.4223
                  CHANNELS 6 Xposition Yposition Zposition Zrotation Xrotation Yrotation
                  JOINT LeftFinger01
                  {
                    OFFSET -1.1471 -3.4929 2.6334
                    CHANNELS 6 Xposition Yposition Zposition Zrotation Xrotation Yrotation
                    JOINT LeftFinger02
                    {
                      OFFSET -0.823 -2.3 1.6571
                      CHANNELS 6 Xposition Yposition Zposition Zrotation Xrotation Yrotation
                      End Site
                      {
                        OFFSET -0.5822 -1.6914 1.1582
                      }
                    }
                  }
                }
              }
            }
          }
        }
        JOINT RightCollar
        {
          OFFSET -2.2603 21.606 7.4023
          CHANNELS 6 Xposition Yposition Zposition Zrotation Xrotation Yrotation
          JOINT RightShoulder
          {
            OFFSET -13.5187 -1.1334 -5.0155
            CHANNELS 6 Xposition Yposition Zposition Zrotation Xrotation Yrotation
            JOINT RightElbow
            {
              OFFSET 0.0994 -28.0499 -0.2431
              CHANNELS 6 Xposition Yposition Zposition Zrotation Xrotation Yrotation
              JOINT RightWrist
              {
                OFFSET -0.0679 -23.3996 -0.1402
                CHANNELS 6 Xposition Yposition Zposition Zrotation Xrotation Yrotation
                JOINT RightFinger1
                {
                  OFFSET -0.7932 -9.0691 2.5189
                  CHANNELS 6 Xposition Yposition Zposition Zrotation Xrotation Yrotation
                  JOINT RightFinger11
                  {
                    OFFSET 0.8272 -3.3923 0.5977
                    CHANNELS 6 Xposition Yposition Zposition Zrotation Xrotation Yrotation
                    JOINT RightFinger12
                    {
                      OFFSET 0.565 -2.3158 0.4082
                      CHANNELS 6 Xposition Yposition Zposition Zrotation Xrotation Yrotation
                      End Site
                      {
                        OFFSET 0.4919 -1.6479 0.2673
                      }
                    }
                  }
                }
                JOINT RightFinger2
                {
                  OFFSET -0.916 -9.2044 0.2193
                  CHANNELS 6 Xposition Yposition Zposition Zrotation Xrotation Yrotation
                  JOINT RightFinger21
                  {
                    OFFSET -0.0117 -4.1944 -0.0248
                    CHANNELS 6 Xposition Yposition Zposition Zrotation Xrotation Yrotation
                    JOINT RightFinger22
                    {
                      OFFSET -0.0071 -2.3249 -0.0142
                      CHANNELS 6 Xposition Yposition Zposition Zrotation Xrotation Yrotation
                      End Site
                      {
                        OFFSET 0.1475 -2.0882 0.0028
                      }
                    }
                  }
                }
                JOINT RightFinger3
                {
                  OFFSET -0.6113 -8.7231 -2.0637
                  CHANNELS 6 Xposition Yposition Zposition Zrotation Xrotation Yrotation
                  JOINT RightFinger31
                  {
                    OFFSET 0.1927 -3.8059 -0.2383
                    CHANNELS 6 Xposition Yposition Zposition Zrotation Xrotation Yrotation
                    JOINT RightFinger32
                    {
                      OFFSET 0.1091 -2.1688 -0.1362
                      CHANNELS 6 Xposition Yposition Zposition Zrotation Xrotation Yrotation
                      End Site
                      {
                        OFFSET 0.2358 -1.9176 -0.0906
                      }
                    }
                  }
                }
                JOINT RightFinger4
                {
                  OFFSET 0.6151 -8.0947 -3.564
                  CHANNELS 6 Xposition Yposition Zposition Zrotation Xrotation Yrotation
                  JOINT RightFinger41
                  {
                    OFFSET 0.4882 -2.341 -0.6462
                    CHANNELS 6 Xposition Yposition Zposition Zrotation Xrotation Yrotation
                    JOINT RightFinger42
                    {
                      OFFSET 0.3574 -1.7166 -0.4742
                      CHANNELS 6 Xposition Yposition Zposition Zrotation Xrotation Yrotation
                      End Site
                      {
                        OFFSET 0.4187 -1.5237 -0.3496
                      }
                    }
                  }
                }
                JOINT RightFinger0
                {
                  OFFSET 1.4199 -1.8761 1.4221
                  CHANNELS 6 Xposition Yposition Zposition Zrotation Xrotation Yrotation
                  JOINT RightFinger01
                  {
                    OFFSET 1.1472 -3.4929 2.6336
                    CHANNELS 6 Xposition Yposition Zposition Zrotation Xrotation Yrotation
                    JOINT RightFinger02
                    {
                      OFFSET 0.8229 -2.3 1.6571
                      CHANNELS 6 Xposition Yposition Zposition Zrotation Xrotation Yrotation
                      End Site
                      {
                        OFFSET 0.5822 -1.6914 1.1582
                      }
                    }
                  }
                }
              }
            }
          }
        }
      }
    }
  }
  JOINT RightHip
  {
    OFFSET -9.412 3.9771 -0.7758
    CHANNELS 6 Xposition Yposition Zposition Zrotation Xrotation Yrotation
    JOINT RightKnee
    {
      OFFSET -0.7531 -40.938 0
      CHANNELS 6 Xposition Yposition Zposition Zrotation Xrotation Yrotation
      JOINT RightAnkle
      {
        OFFSET 0 -40.1986 0
        CHANNELS 6 Xposition Yposition Zposition Zrotation Xrotation Yrotation
        JOINT RightToe
        {
          OFFSET 0 -4.4182 9.239
          CHANNELS 6 Xposition Yposition Zposition Zrotation Xrotation Yrotation
          End Site
          {
            OFFSET 0 0 6.1981
          }
        }
      }
    }
  }
  JOINT LeftHip
  {
    OFFSET 9.4119 3.9773 -0.7758
    CHANNELS 6 Xposition Yposition Zposition Zrotation Xrotation Yrotation
    JOINT LeftKnee
    {
      OFFSET 0.7532 -40.9383 0
      CHANNELS 6 Xposition Yposition Zposition Zrotation Xrotation Yrotation
      JOINT LeftAnkle
      {
        OFFSET 0 -40.1986 0
        CHANNELS 6 Xposition Yposition Zposition Zrotation Xrotation Yrotation
        JOINT LeftToe
        {
          OFFSET 0 -4.4182 9.239
          CHANNELS 6 Xposition Yposition Zposition Zrotation Xrotation Yrotation
          End Site
          {
            OFFSET 0 0 6.1981
          }
        }
      }
    }
  }
}
MOTION
Frames:	4
Frame Time:	0.0333333
0.803913 13.2181 13.2733 10.6722 -89.4199 -169.207 0 8.7983 -4.7612 -0.14282 -5.76765 -0.741309 -1.11022e-016 8.0291 0.4195 -0.363863 -11.5328 -1.50871 0 9.9351 -2.2114 -0.363866 -11.5329 -1.50872 -2.22045e-016 22.3885 -0.4656 -5.00913 3.0518 -20.7342 -0.0001 12.643 3.4389 -14.7802 -18.4863 -19.7836 2.2603 21.606 7.4023 3.36432 37.3113 2.96222 13.5163 -1.1332 -5.0146 132.531 -37.1868 -1.49191 -0.0995 -28.05 -0.2431 63.3483 -57.0205 46.4171 0.0679 -23.3996 -0.1402 88.9426 43.6208 -2.84484 0.7932 -9.069 2.5189 1.31387e-006 1.09581e-007 -3.3475e-006 -0.8272 -3.3923 0.5977 1.39149e-015 -1.59028e-015 2.83268e-015 -0.5649 -2.3158 0.4082 -1.31387e-006 -1.09581e-007 3.3475e-006 0.9159 -9.2044 0.2193 1.31387e-006 1.09581e-007 -3.3475e-006 0.0117 -4.1944 -0.0248 -0.0128169 0.00233021 8.32996e-005 0.0071 -2.3249 -0.0142 -7.95139e-016 0 -1.59028e-015 0.6113 -8.7231 -2.0637 1.31387e-006 1.09581e-007 -3.3475e-006 -0.1927 -3.8059 -0.2383 -0.0160507 0.0030079 0.000863999 -0.1091 -2.1688 -0.1362 -9.93923e-016 0 -1.49089e-016 -0.6151 -8.0947 -3.5641 1.31387e-006 1.09581e-007 -3.3475e-006 -0.4882 -2.341 -0.6462 -0.0126213 0.00313024 0.00283519 -0.3575 -1.7167 -0.4742 1.98785e-016 1.59028e-015 -4.72114e-015 -1.42 -1.8761 1.4223 1.31387e-006 1.09581e-007 -3.3475e-006 -1.1471 -3.4929 2.6334 1.39149e-015 -1.59028e-015 2.83268e-015 -0.823 -2.3 1.6571 -1.31387e-006 -1.09581e-007 3.3475e-006 -2.2603 21.606 7.4023 44.2682 3.60419 -12.7477 -13.5187 -1.1334 -5.0155 -107.94 -47.7063 18.1997 0.0994 -28.0499 -0.2431 -51.9939 -56.9997 -40.2432 -0.0679 -23.3996 -0.1402 -58.1129 -15.3665 -3.24687 -0.7932 -9.0691 2.5189 7.95139e-016 0 -1.98785e-015 0.8272 -3.3923 0.5977 7.95139e-016 -3.18055e-015 1.09332e-015 0.565 -2.3158 0.4082 -7.95139e-016 -1.59028e-015 9.93923e-016 -0.916 -9.2044 0.2193 7.95139e-016 0 -1.98785e-015 -0.0117 -4.1944 -0.0248 0.0129513 0.00232194 -9.5635e-005 -0.0071 -2.3249 -0.0142 0 0 -3.8763e-015 -0.6113 -8.7231 -2.0637 7.95139e-016 0 -1.98785e-015 0.1927 -3.8059 -0.2383 0.0163437 0.00304268 -0.000887614 0.1091 -2.1688 -0.1362 -1.10348e-032 -1.59028e-015 -3.97569e-016 0.6151 -8.0947 -3.564 7.95139e-016 0 -1.98785e-015 0.4882 -2.341 -0.6462 0.0145975 0.00369304 -0.0032651 0.3574 -1.7166 -0.4742 -1.15234e-005 -3.16211e-006 -5.52188e-006 1.4199 -1.8761 1.4221 7.95139e-016 0 -1.98785e-015 1.1472 -3.4929 2.6336 7.95139e-016 -3.18055e-015 1.09332e-015 0.8229 -2.3 1.6571 -7.95139e-016 -1.59028e-015 9.93923e-016 -9.412 3.9771 -0.7758 -88.2381 -24.099 -86.1052 -0.7531 -40.938 0 129.862 80.1016 -126.888 0 -40.1986 0 -24.2503 42.193 24.9446 0 -4.4182 9.239 1.65061e-007 2.0614e-006 4.13677e-006 9.4119 3.9773 -0.7758 88.2319 -24.1078 86.0826 0.7532 -40.9383 0 -129.855 80.1024 126.872 0 -40.1986 0 24.229 42.1952 -24.9425 0 -4.4182 9.239 4.87482e-006 2.99001e-006 -1.57402e-006 
0.804377 13.368 13.341 151.483 -89.7638 -28.3916 -1.11022e-016 8.7983 -4.7612 -0.138296 -6.05318 -0.74262 1.11022e-016 8.0291 0.4195 -0.359025 -12.104 -1.5128 0 9.9351 -2.2114 -0.359026 -12.1041 -1.51281 4.44089e-016 22.3885 -0.4656 -5.00842 2.89222 -20.7482 -0.0001 12.643 3.4389 -14.8054 -18.7687 -19.8623 2.2603 21.606 7.4023 3.58624 37.7968 2.45937 13.5163 -1.1332 -5.0146 132.351 -37.1729 -1.6353 -0.0995 -28.05 -0.2431 62.4232 -56.8702 45.6444 0.0679 -23.3996 -0.1402 88.9426 43.6208 -2.84486 0.7932 -9.069 2.5189 -1.98785e-016 1.59028e-015 -2.98177e-015 -0.8272 -3.3923 0.5977 -9.93923e-016 0 -2.90723e-015 -0.5649 -2.3158 0.4082 -1.19271e-015 -1.59028e-015 -2.83268e-015 0.9159 -9.2044 0.2193 -1.98785e-016 1.59028e-015 -2.98177e-015 0.0117 -4.1944 -0.0248 -0.0128102 0.00232917 8.68589e-005 0.0071 -2.3249 -0.0142 -3.15644e-006 -7.76163e-007 1.95875e-006 0.6113 -8.7231 -2.0637 -1.98785e-016 1.59028e-015 -2.98177e-015 -0.1927 -3.8059 -0.2383 -0.0160586 0.00299591 0.000855692 -0.1091 -2.1688 -0.1362 1.98785e-016 1.59028e-015 5.64051e-015 -0.6151 -8.0947 -3.5641 -1.98785e-016 1.59028e-015 -2.98177e-015 -0.4882 -2.341 -0.6462 -0.0125825 0.00312549 0.00283394 -0.3575 -1.7167 -0.4742 -6.13528e-006 -5.63665e-006 -6.84802e-006 -1.42 -1.8761 1.4223 -1.98785e-016 1.59028e-015 -2.98177e-015 -1.1471 -3.4929 2.6334 -9.93923e-016 0 -2.90723e-015 -0.823 -2.3 1.6571 -1.19271e-015 -1.59028e-015 -2.83268e-015 -2.2603 21.606 7.4023 44.4045 3.87527 -12.6993 -13.5187 -1.1334 -5.0155 -107.801 -47.6066 18.322 0.0994 -28.0499 -0.2431 -51.3039 -56.8003 -39.6595 -0.0679 -23.3996 -0.1402 -57.9197 -15.5627 -3.32372 -0.7932 -9.0691 2.5189 2.86202e-006 6.44845e-006 -1.76777e-006 0.8272 -3.3923 0.5977 -5.01419e-006 -6.15274e-006 9.62348e-007 0.565 -2.3158 0.4082 2.15217e-006 -2.95706e-007 8.05423e-007 -0.916 -9.2044 0.2193 2.86202e-006 6.44845e-006 -1.76777e-006 -0.0117 -4.1944 -0.0248 0.0129487 0.00231021 -8.55007e-005 -0.0071 -2.3249 -0.0142 1.04097e-005 -8.46078e-006 1.6314e-005 -0.6113 -8.7231 -2.0637 2.86202e-006 6.44845e-006 -1.76777e-006 0.1927 -3.8059 -0.2383 0.0163297 0.00302747 -0.00086648 0.1091 -2.1688 -0.1362 7.95139e-016 3.18055e-015 -5.1684e-015 0.6151 -8.0947 -3.564 2.86202e-006 6.44845e-006 -1.76777e-006 0.4882 -2.341 -0.6462 0.0145734 0.00366248 -0.00323993 0.3574 -1.7166 -0.4742 7.14373e-006 6.06901e-006 -5.43602e-006 1.4199 -1.8761 1.4221 2.86202e-006 6.44845e-006 -1.76777e-006 1.1472 -3.4929 2.6336 -5.01419e-006 -6.15274e-006 9.62348e-007 0.8229 -2.3 1.6571 2.15217e-006 -2.95706e-007 8.05423e-007 -9.412 3.9771 -0.7758 -88.665 -24.5669 -86.7129 -0.7531 -40.938 1.77636e-015 129.938 80.0909 -126.954 -3.55271e-015 -40.1986 7.10543e-015 -23.6138 42.3902 24.4605 -3.55271e-015 -4.4182 9.239 5.19692e-007 -3.70658e-006 6.77284e-007 9.4119 3.9773 -0.7758 88.6589 -24.5754 86.6908 0.7532 -40.9383 0 -129.93 80.0919 126.937 -3.55271e-015 -40.1986 0 23.5933 42.3922 -24.4588 0 -4.4182 9.239 1.71944e-005 9.13713e-006 -1.40381e-006 
0.804847 13.5184 13.4073 173.158 -89.0078 -6.71246 0 8.7983 -4.7612 -0.133766 -6.33871 -0.743874 1.11022e-016 8.0291 0.4195 -0.3542 -12.6751 -1.51681 -2.22045e-016 9.9351 -2.2114 -0.354202 -12.6751 -1.51681 -2.22045e-016 22.3885 -0.4656 -5.00775 2.73262 -20.7622 -0.0001 12.643 3.4389 -14.831 -19.0511 -19.9413 2.2603 21.606 7.4023 3.81503 38.2807 1.95087 13.5163 -1.1332 -5.0146 132.172 -37.1586 -1.77864 -0.0995 -28.05 -0.2431 61.5059 -56.7132 44.8795 0.0679 -23.3996 -0.1402 88.9426 43.6207 -2.84488 0.7932 -9.069 2.5189 1.98785e-016 4.77083e-015 -1.26725e-015 -0.8272 -3.3923 0.5977 3.51733e-032 1.59028e-015 -1.26725e-015 -0.5649 -2.3158 0.4082 -7.95139e-016 1.59028e-015 -1.14301e-015 0.9159 -9.2044 0.2193 1.98785e-016 4.77083e-015 -1.26725e-015 0.0117 -4.1944 -0.0248 -0.0128283 0.00233481 8.68584e-005 0.0071 -2.3249 -0.0142 7.95139e-016 -1.59028e-015 -5.36719e-015 0.6113 -8.7231 -2.0637 1.98785e-016 4.77083e-015 -1.26725e-015 -0.1927 -3.8059 -0.2383 -0.0160502 0.00299178 0.000855194 -0.1091 -2.1688 -0.1362 -5.96354e-016 -3.18055e-015 1.21756e-015 -0.6151 -8.0947 -3.5641 1.98785e-016 4.77083e-015 -1.26725e-015 -0.4882 -2.341 -0.6462 -0.0126029 0.0031273 0.00283105 -0.3575 -1.7167 -0.4742 -5.24894e-006 -9.28758e-006 -8.86301e-007 -1.42 -1.8761 1.4223 1.98785e-016 4.77083e-015 -1.26725e-015 -1.1471 -3.4929 2.6334 3.51733e-032 1.59028e-015 -1.26725e-015 -0.823 -2.3 1.6571 -7.95139e-016 1.59028e-015 -1.14301e-015 -2.2603 21.606 7.4023 44.5405 4.14644 -12.6516 -13.5187 -1.1334 -5.0155 -107.663 -47.5066 18.4439 0.0994 -28.0499 -0.2431 -50.6216 -56.5972 -39.0834 -0.0679 -23.3996 -0.1402 -57.7267 -15.7589 -3.39999 -0.7932 -9.0691 2.5189 -5.52179e-006 -2.85559e-006 -2.1964e-006 0.8272 -3.3923 0.5977 -6.4317e-006 3.23157e-006 2.86332e-006 0.565 -2.3158 0.4082 3.03456e-032 1.59028e-015 -1.09332e-015 -0.916 -9.2044 0.2193 -5.52179e-006 -2.85559e-006 -2.1964e-006 -0.0117 -4.1944 -0.0248 0.0129554 0.00231026 -8.76116e-005 -0.0071 -2.3249 -0.0142 -1.16364e-006 -4.12275e-006 3.48008e-006 -0.6113 -8.7231 -2.0637 -5.52179e-006 -2.85559e-006 -2.1964e-006 0.1927 -3.8059 -0.2383 0.0163344 0.00303748 -0.00087738 0.1091 -2.1688 -0.1362 -2.38542e-015 3.18055e-015 -2.48481e-015 0.6151 -8.0947 -3.564 -5.52179e-006 -2.85559e-006 -2.1964e-006 0.4882 -2.341 -0.6462 0.0145838 0.00367497 -0.00326405 0.3574 -1.7166 -0.4742 -4.2806e-006 -4.92554e-006 3.66939e-006 1.4199 -1.8761 1.4221 -5.52179e-006 -2.85559e-006 -2.1964e-006 1.1472 -3.4929 2.6336 -6.4317e-006 3.23157e-006 2.86332e-006 0.8229 -2.3 1.6571 3.03456e-032 1.59028e-015 -1.09332e-015 -9.412 3.9771 -0.7758 -89.0989 -25.0312 -87.3266 -0.7531 -40.938 1.77636e-015 130.014 80.0801 -127.022 0 -40.1986 -7.10543e-015 -22.973 42.5829 23.9716 0 -4.4182 9.239 3.61154e-007 9.81891e-006 -3.54452e-006 9.4119 3.9773 -0.7758 89.0932 -25.0391 87.3051 0.7532 -40.9383 1.77636e-015 -130.007 80.081 127.005 0 -40.1986 0 22.9531 42.5849 -23.9702 3.55271e-015 -4.4182 9.239 7.32528e-006 -4.90048e-007 -2.30972e-006 
0.805321 13.6696 13.4723 175.986 -88.2333 -3.87974 1.11022e-016 8.7983 -4.7612 -0.129228 -6.62417 -0.745074 1.11022e-016 8.0291 0.4195 -0.349387 -13.2461 -1.52072 0 9.9351 -2.2114 -0.349389 -13.2461 -1.52072 0 22.3885 -0.4656 -5.00712 2.57304 -20.7762 -0.0001 12.643 3.4389 -14.8571 -19.3337 -20.0206 2.2603 21.606 7.4023 4.0508 38.7629 1.43657 13.5163 -1.1332 -5.0146 131.992 -37.1439 -1.92189 -0.0995 -28.05 -0.2431 60.5965 -56.5496 44.1226 0.0679 -23.3996 -0.1402 88.9426 43.6207 -2.8449 0.7932 -9.069 2.5189 -3.15881e-006 -4.81002e-008 1.97431e-006 -0.8272 -3.3923 0.5977 -5.96354e-016 0 -3.08116e-015 -0.5649 -2.3158 0.4082 6.41051e-007 -1.23806e-005 -7.89407e-006 0.9159 -9.2044 0.2193 -3.15881e-006 -4.81002e-008 1.97431e-006 0.0117 -4.1944 -0.0248 -0.0128079 0.00234453 8.23565e-005 0.0071 -2.3249 -0.0142 5.96354e-016 0 -3.73964e-015 0.6113 -8.7231 -2.0637 -3.15881e-006 -4.81002e-008 1.97431e-006 -0.1927 -3.8059 -0.2383 -0.0160448 0.00299736 0.000862642 -0.1091 -2.1688 -0.1362 -3.97569e-016 -3.18055e-015 1.98785e-016 -0.6151 -8.0947 -3.5641 -3.15881e-006 -4.81002e-008 1.97431e-006 -0.4882 -2.341 -0.6462 -0.0126156 0.00312981 0.00283573 -0.3575 -1.7167 -0.4742 -1.98785e-016 -1.59028e-015 5.41688e-015 -1.42 -1.8761 1.4223 -3.15881e-006 -4.81002e-008 1.97431e-006 -1.1471 -3.4929 2.6334 -5.96354e-016 0 -3.08116e-015 -0.823 -2.3 1.6571 6.41051e-007 -1.23806e-005 -7.89407e-006 -2.2603 21.606 7.4023 44.6763 4.41775 -12.6045 -13.5187 -1.1334 -5.0155 -107.525 -47.4064 18.5652 0.0994 -28.0499 -0.2431 -49.9468 -56.3903 -38.5149 -0.0679 -23.3996 -0.1402 -57.5337 -15.9555 -3.47557 -0.7932 -9.0691 2.5189 7.95139e-016 0 2.05742e-014 0.8272 -3.3923 0.5977 2.38542e-015 1.59028e-015 2.05742e-014 0.565 -2.3158 0.4082 5.56597e-015 -1.59028e-015 1.35174e-014 -0.916 -9.2044 0.2193 7.95139e-016 0 2.05742e-014 -0.0117 -4.1944 -0.0248 0.0129452 0.00230209 -8.4323e-005 -0.0071 -2.3249 -0.0142 8.30655e-006 7.13254e-006 -8.92084e-006 -0.6113 -8.7231 -2.0637 7.95139e-016 0 2.05742e-014 0.1927 -3.8059 -0.2383 0.016334 0.00304614 -0.000883627 0.1091 -2.1688 -0.1362 -2.38542e-015 3.18055e-015 -2.18663e-015 0.6151 -8.0947 -3.564 7.95139e-016 0 2.05742e-014 0.4882 -2.341 -0.6462 0.0145733 0.00366238 -0.00326822 0.3574 -1.7166 -0.4742 3.82256e-006 9.95881e-007 4.86329e-007 1.4199 -1.8761 1.4221 7.95139e-016 0 2.05742e-014 1.1472 -3.4929 2.6336 2.38542e-015 1.59028e-015 2.05742e-014 0.8229 -2.3 1.6571 5.56597e-015 -1.59028e-015 1.35174e-014 -9.412 3.9771 -0.7758 -89.5403 -25.4914 -87.9467 -0.7531 -40.938 0 130.094 80.0688 -127.092 3.55271e-015 -40.1986 0 -22.328 42.7712 23.4781 0 -4.4182 9.239 -8.86294e-006 1.23603e-007 2.9056e-007 9.4119 3.9773 -0.7758 89.5346 -25.4992 87.9255 0.7532 -40.9383 0 -130.085 80.0698 127.074 0 -40.1986 0 22.3086 42.7731 -23.477 3.55271e-015 -4.4182 9.23901 8.78771e-007 9.152e-006 -2.86385e-006 
